# xmcd
# 
# Track frame offsets:
#     150
#     11706
#     23398
#     33283
#     45570
#     57173
#     70533
#     81634
#     99402
#     112550
#     122894
#     135415
#     146368
#     158537
#     170975
#     187239
# 
# Disc length: 2676
# 
# Revision: 1
# Processed by: cddbd v1.5.2PL0 Copyright (c) Steve Scherf et al.
# Submitted via: fre:ac v1.0.31
# 
DISCID=c90a7210
DTITLE=John Lee Hooker - Whiskey and Wimmen: John Lee Hooker's Finest
DYEAR=2017
DGENRE=Blues
TTITLE0=Boom Boom
TTITLE1=Boogie Chillun
TTITLE2=Dimples
TTITLE3=I'm In the Mood
TTITLE4=I Love You Honey
TTITLE5=Whiskey and Wimmen
TTITLE6=I Need Some Money
TTITLE7=Grinder Man
TTITLE8=I'm Going Upstairs
TTITLE9=Big Legs, Tight Skirt
TTITLE10=No More Doggin'
TTITLE11=No Shoes
TTITLE12=Crawlin' King Snake
TTITLE13=Frisco Blues
TTITLE14=It Serves Me Right
TTITLE15=Time is Marching
EXTD=YEAR: 2017
EXTT0=
EXTT1=
EXTT2=
EXTT3=
EXTT4=
EXTT5=
EXTT6=
EXTT7=
EXTT8=
EXTT9=
EXTT10=
EXTT11=
EXTT12=
EXTT13=
EXTT14=
EXTT15=
PLAYORDER=
